Input #0, mov,mp4,m4a,3gp,3g2,mj2, from '/home/hbattu/projects/huberman-gpt/huberman-audio/mp3/tmpn4ocnbvx.mp4':
  Metadata:
    major_brand     : dash
    minor_version   : 0
    compatible_brands: iso6mp41
    creation_time   : 2021-06-17T12:17:53.000000Z
  Duration: 01:49:37.80, start: 0.000000, bitrate: 129 kb/s
    Stream #0:0(und): Audio: aac (LC) (mp4a / 0x6134706D), 44100 Hz, stereo, fltp, 0 kb/s (default)
    Metadata:
      creation_time   : 2021-06-17T12:17:53.000000Z
      handler_name    : ISO Media file produced by Google Inc.
Stream mapping:
  Stream #0:0 -> #0:0 (aac (native) -> mp3 (libmp3lame))
Press [q] to stop, [?] for help
[graph_0_in_0_0 @ 0x558541476700] tb:1/44100 samplefmt:fltp samplerate:44100 chlayout:0x3
Output #0, mp3, to '../huberman-audio/mp3/ObtW353d5i0.mp3':
  Metadata:
    major_brand     : dash
    minor_version   : 0
    compatible_brands: iso6mp41
    TSSE            : Lavf58.29.100
    Stream #0:0(und): Audio: mp3 (libmp3lame), 44100 Hz, stereo, fltp, delay 1105 (default)
    Metadata:
      creation_time   : 2021-06-17T12:17:53.000000Z
      handler_name    : ISO Media file produced by Google Inc.
      encoder         : Lavc58.54.100 libmp3lame
No more output streams to write to, finishing.
size=  102779kB time=01:49:37.81 bitrate= 128.0kbits/s speed=90.1x    
[AVIOContext @ 0x558541368900] Statistics: 0 seeks, 146 writeouts
video:0kB audio:102779kB subtitle:0kB other streams:0kB global headers:0kB muxing overhead: 0.000329%
Input file #0 (/home/hbattu/projects/huberman-gpt/huberman-audio/mp3/tmpn4ocnbvx.mp4):
  Input stream #0:0 (audio): 283282 packets read (105244723 bytes); 283282 frames decoded (290080768 samples); 
  Total: 283282 packets (105244723 bytes) demuxed
Output file #0 (../huberman-audio/mp3/ObtW353d5i0.mp3):
  Output stream #0:0 (audio): 251807 frames encoded (290080768 samples); 251808 packets muxed (105245466 bytes); 
  Total: 251808 packets (105245466 bytes) muxed
[AVIOContext @ 0x55854138aa40] Statistics: 2 seeks, 403 writeouts
[AVIOContext @ 0x558541371880] Statistics: 106454959 bytes read, 0 seeks
